<?xml version="1.0" standalone="no"?>
<!DOCTYPE svg PUBLIC "-//W3C//DTD SVG 20010904//EN"
 "http://www.w3.org/TR/2001/REC-SVG-20010904/DTD/svg10.dtd">
<svg version="1.0" xmlns="http://www.w3.org/2000/svg"
 width="1200.000000pt" height="675.000000pt" viewBox="0 0 1200.000000 675.000000"
 preserveAspectRatio="xMidYMid meet">

<g transform="translate(0.000000,675.000000) scale(0.100000,-0.100000)"
fill="#000000" stroke="none">
<path d="M5415 6739 c-182 -34 -224 -42 -255 -46 -19 -3 -37 -9 -40 -13 -3 -5
-25 -11 -50 -14 -103 -12 -257 -38 -289 -48 -19 -6 -56 -12 -83 -14 -27 -2
-57 -8 -67 -14 -11 -5 -61 -16 -113 -25 -51 -8 -138 -24 -193 -35 -55 -11
-136 -27 -180 -35 -44 -9 -136 -29 -205 -45 -105 -24 -233 -47 -430 -77 -19
-2 -39 -8 -45 -11 -5 -4 -57 -14 -115 -24 -58 -9 -127 -21 -155 -27 -27 -5
-93 -17 -145 -26 -52 -9 -111 -20 -130 -25 -54 -14 -225 -47 -330 -64 -52 -8
-126 -22 -165 -31 -38 -8 -122 -24 -185 -35 -113 -20 -428 -79 -665 -125 -186
-37 -327 -62 -490 -90 -170 -30 -232 -41 -327 -61 -37 -8 -122 -14 -189 -14
l-122 0 -53 58 c-30 31 -54 62 -54 68 0 6 -11 21 -25 34 -14 13 -38 46 -54 74
-16 28 -42 65 -56 81 -36 40 -105 141 -105 154 0 5 -6 16 -13 23 -12 13 -33
42 -69 97 -17 25 -18 -71 -18 -2028 l0 -2053 23 5 c12 3 60 13 107 22 47 9
112 25 145 35 33 10 98 28 145 40 47 11 108 27 136 35 28 8 62 15 75 15 14 0
49 7 79 15 111 31 457 113 505 120 28 4 55 10 60 15 16 12 180 56 295 79 144
29 202 43 220 52 22 11 274 76 350 89 36 7 81 18 101 25 61 23 397 105 429
105 17 0 52 9 78 20 54 22 275 75 374 89 38 5 82 16 98 25 17 8 61 22 98 30
171 40 240 55 282 61 25 4 68 16 95 26 66 24 240 65 377 90 61 11 119 24 130
30 28 15 197 55 309 73 52 9 119 25 149 37 30 11 75 25 100 29 83 15 214 39
285 51 39 7 88 20 110 30 39 18 105 37 345 100 176 46 179 47 184 41 4 -3 6 0
6 7 0 8 7 10 20 6 11 -3 20 -3 20 1 0 15 -58 83 -161 189 -59 61 -131 135
-160 166 -30 31 -74 71 -99 90 -25 19 -63 54 -85 78 -38 42 -88 91 -304 297
-157 150 -211 198 -255 226 -22 14 -52 38 -66 52 -14 14 -31 26 -38 26 -6 0
-22 16 -34 35 -13 19 -28 35 -34 35 -7 0 -14 7 -18 15 -3 8 -11 15 -19 15 -7
0 -24 13 -37 30 -14 16 -29 29 -33 30 -14 0 -103 93 -126 130 -11 19 -21 32
-21 28 0 -4 -16 8 -35 28 -19 19 -35 40 -35 46 0 6 -2 9 -5 6 -3 -3 -65 53
-136 124 -72 71 -145 136 -162 143 -18 8 -28 14 -22 15 43 1 -163 80 -210 80
-20 0 -27 -6 -31 -30 -4 -16 -13 -30 -20 -30 -7 0 -21 -11 -29 -24 -12 -18
-28 -25 -71 -31 -31 -4 -80 -15 -110 -25 l-54 -19 -30 30 c-22 23 -30 40 -30
67 0 20 -9 64 -20 96 -36 105 -19 163 48 171 36 5 72 -12 72 -32 0 -7 3 -13 8
-13 15 0 82 -72 76 -82 -4 -7 5 -8 27 -2 19 4 47 6 63 5 34 -2 46 12 46 57 0
22 5 32 15 32 8 0 34 17 56 38 40 36 45 37 113 37 76 -1 148 -17 207 -46 41
-20 222 -195 289 -279 24 -30 54 -66 67 -80 51 -57 103 -122 103 -128 0 -9
119 -132 127 -132 6 0 55 -50 163 -168 65 -70 147 -177 170 -220 6 -13 28 -45
48 -71 20 -26 65 -84 99 -128 34 -45 73 -90 85 -100 13 -10 45 -43 72 -73 28
-30 90 -98 140 -150 49 -52 95 -108 102 -125 7 -16 93 -113 191 -213 l178
-184 135 32 c74 17 159 40 188 50 29 11 74 22 100 26 63 9 233 51 280 69 51
19 143 41 228 54 39 6 95 18 125 27 83 24 113 31 269 65 80 17 177 41 217 54
39 13 118 33 175 45 183 36 252 53 283 66 17 7 73 22 125 33 52 11 136 29 185
40 50 11 115 28 145 39 30 11 96 28 145 37 170 32 223 45 271 66 27 11 110 31
184 45 74 13 164 33 200 44 98 31 127 38 220 56 47 8 146 33 220 54 74 21 196
50 270 65 74 15 160 35 190 45 75 24 126 36 249 61 58 11 129 29 160 39 30 11
116 31 190 46 75 14 170 37 211 50 41 13 143 37 225 54 83 16 184 40 225 51
84 24 193 47 260 56 25 3 50 9 55 13 6 4 30 11 55 15 25 3 68 13 95 20 28 8
77 19 110 26 33 6 74 15 90 19 17 5 49 12 73 15 l42 7 0 744 0 744 -2840 0
c-2093 0 -2840 -3 -2840 -11 0 -8 -4 -8 -13 -1 -16 14 -819 14 -892 1z"/>
<path d="M3513 5693 c-7 -2 -13 -9 -13 -15 0 -14 43 -6 48 10 4 12 -12 15 -35
5z"/>
<path d="M5805 3650 c3 -5 7 -45 9 -89 4 -86 9 -101 32 -101 8 0 12 5 9 10 -4
6 -2 17 4 24 17 21 -4 124 -30 147 -24 21 -34 24 -24 9z"/>
<path d="M5830 3388 c0 -34 4 -48 14 -48 17 0 26 22 26 65 0 28 -4 33 -20 32
-17 -1 -20 -8 -20 -49z"/>
<path d="M6845 3050 c-3 -6 1 -7 9 -4 18 7 21 14 7 14 -6 0 -13 -4 -16 -10z"/>
<path d="M8210 2981 c0 -10 19 -25 25 -20 1 2 -3 10 -11 17 -8 7 -14 8 -14 3z"/>
<path d="M4201 2949 c9 -13 26 -28 37 -34 12 -5 22 -13 22 -18 0 -11 81 -87
92 -87 5 0 -4 12 -20 28 -16 15 -32 35 -36 45 -3 10 -19 24 -34 29 -16 6 -33
20 -38 31 -5 12 -16 23 -24 25 -12 4 -12 2 1 -19z"/>
<path d="M5375 2960 c-3 -5 -2 -10 4 -10 5 0 13 5 16 10 3 6 2 10 -4 10 -5 0
-13 -4 -16 -10z"/>
<path d="M6001 2945 c0 -14 28 -50 34 -43 3 3 -3 16 -14 29 -11 13 -20 20 -20
14z"/>
<path d="M5448 2913 c6 -2 12 -10 12 -17 0 -13 31 -46 44 -46 4 0 -5 16 -20
35 -14 19 -31 35 -38 34 -7 0 -6 -2 2 -6z"/>
<path d="M4870 2903 c0 -5 10 -19 23 -30 12 -11 27 -28 32 -38 6 -10 16 -16
23 -14 6 2 -9 23 -33 47 -25 24 -45 40 -45 35z"/>
<path d="M7210 2896 c0 -8 -3 -23 -6 -33 -5 -16 -4 -16 10 1 18 22 21 46 6 46
-5 0 -10 -6 -10 -14z"/>
<path d="M7906 2901 c-4 -7 -5 -15 -2 -18 9 -9 19 4 14 18 -4 11 -6 11 -12 0z"/>
<path d="M3651 2883 c17 -22 41 -41 91 -71 56 -34 46 -11 -11 26 -27 18 -51
39 -55 47 -3 8 -13 15 -22 15 -14 0 -15 -2 -3 -17z"/>
<path d="M6677 2873 c9 -3 9 -11 -3 -29 -10 -14 -12 -24 -5 -24 6 0 17 14 26
30 15 29 15 30 -7 29 -13 0 -17 -3 -11 -6z"/>
<path d="M6070 2860 c0 -6 7 -13 15 -16 8 -3 23 -20 34 -38 32 -51 71 -93 71
-76 0 9 -8 23 -17 32 -10 9 -34 37 -53 62 -34 45 -50 56 -50 36z"/>
<path d="M3077 2844 c3 -7 9 -14 14 -14 14 0 10 17 -5 23 -10 4 -13 1 -9 -9z"/>
<path d="M7786 2835 c-27 -8 -54 -19 -60 -25 -8 -9 -6 -11 12 -5 13 4 29 2 37
-5 11 -10 21 -7 44 12 50 39 44 44 -33 23z"/>
<path d="M5512 2831 c4 -13 18 -16 19 -4 0 4 -5 9 -11 12 -7 2 -11 -2 -8 -8z"/>
<path d="M7187 2833 c-12 -11 -8 -80 6 -91 6 -5 23 -12 37 -16 18 -4 16 -2 -7
9 -18 8 -31 20 -29 27 17 56 14 92 -7 71z"/>
<path d="M4398 2779 c2 -15 13 -36 23 -45 23 -21 24 -12 3 21 -10 15 -12 25
-5 25 18 0 13 17 -7 22 -15 4 -17 0 -14 -23z"/>
<path d="M4973 2794 c9 -11 17 -25 17 -30 0 -10 53 -54 65 -54 3 0 5 5 5 11 0
5 -4 8 -9 5 -4 -3 -13 5 -19 18 -6 13 -25 34 -44 47 -29 20 -31 20 -15 3z"/>
<path d="M5546 2801 c-7 -10 22 -37 30 -28 4 3 -1 13 -9 22 -9 8 -18 11 -21 6z"/>
<path d="M6618 2803 c7 -3 16 -2 19 1 4 3 -2 6 -13 5 -11 0 -14 -3 -6 -6z"/>
<path d="M8365 2800 c3 -5 8 -10 11 -10 2 0 4 5 4 10 0 6 -5 10 -11 10 -5 0
-7 -4 -4 -10z"/>
<path d="M4852 2790 c-18 -4 -36 -11 -40 -15 -10 -10 61 5 73 16 5 5 7 9 5 8
-3 -1 -20 -5 -38 -9z"/>
<path d="M3157 2779 c7 -7 15 -10 18 -7 3 3 -2 9 -12 12 -14 6 -15 5 -6 -5z"/>
<path d="M7737 2765 c-15 -14 -25 -25 -22 -25 13 0 65 34 65 42 0 14 -14 8
-43 -17z"/>
<path d="M3780 2769 c0 -5 5 -7 10 -4 6 3 10 8 10 11 0 2 -4 4 -10 4 -5 0 -10
-5 -10 -11z"/>
<path d="M5587 2763 c-4 -3 -7 -11 -7 -17 0 -6 5 -5 12 2 6 6 9 14 7 17 -3 3
-9 2 -12 -2z"/>
<path d="M8372 2750 c0 -14 2 -19 5 -12 2 6 2 18 0 25 -3 6 -5 1 -5 -13z"/>
<path d="M3200 2751 c0 -6 5 -13 10 -16 6 -3 10 1 10 9 0 9 -4 16 -10 16 -5 0
-10 -4 -10 -9z"/>
<path d="M3828 2730 c17 -16 36 -30 42 -30 6 0 8 -5 5 -10 -7 -11 11 -40 25
-40 3 0 7 6 7 14 0 8 -6 12 -14 9 -9 -4 -11 0 -7 10 3 9 -3 26 -15 38 -12 13
-21 19 -21 15 0 -4 -7 0 -16 8 -8 9 -20 16 -25 16 -6 0 3 -13 19 -30z"/>
<path d="M6993 2743 c9 -2 17 -9 17 -14 0 -6 5 -7 10 -4 16 10 1 25 -23 24
-17 -1 -18 -2 -4 -6z"/>
<path d="M5600 2731 c0 -5 5 -13 10 -16 6 -3 10 -2 10 4 0 5 -4 13 -10 16 -5
3 -10 2 -10 -4z"/>
<path d="M3252 2706 c15 -13 24 -26 22 -29 -3 -3 4 -10 15 -17 15 -8 21 -8 21
0 0 14 -61 70 -75 70 -5 0 2 -11 17 -24z"/>
<path d="M4450 2711 c0 -5 6 -11 13 -14 9 -3 8 -8 -3 -22 -14 -17 -13 -18 5
-13 11 3 26 -1 33 -9 23 -24 34 -13 12 14 -25 32 -60 58 -60 44z"/>
<path d="M6386 2711 c-19 -7 -19 -8 2 -13 12 -4 20 -2 17 2 -3 5 1 11 7 13 7
3 9 5 3 6 -5 0 -19 -4 -29 -8z"/>
<path d="M6470 2710 c-13 -8 -13 -10 2 -10 9 0 20 5 23 10 8 13 -5 13 -25 0z"/>
<path d="M7664 2706 c-7 -18 1 -46 14 -46 9 0 9 47 -1 56 -4 4 -9 -1 -13 -10z"/>
<path d="M8956 2707 c3 -10 9 -15 12 -12 3 3 0 11 -7 18 -10 9 -11 8 -5 -6z"/>
<path d="M2614 2695 c11 -8 25 -15 31 -15 5 0 16 -9 23 -20 7 -11 19 -20 28
-20 16 0 -21 33 -63 58 -31 17 -42 15 -19 -3z"/>
<path d="M5065 2701 c-5 -10 -4 -16 3 -19 7 -2 12 -8 12 -14 0 -6 8 -18 18
-27 10 -9 25 -26 34 -39 9 -13 18 -20 20 -15 5 9 -39 78 -50 78 -4 0 -6 3 -4
8 1 4 -2 7 -7 7 -5 0 -11 8 -13 18 -3 14 -5 15 -13 3z"/>
<path d="M6191 2699 c8 -8 21 -23 28 -34 11 -19 12 -19 9 -1 -2 10 -14 25 -28
33 -17 10 -20 11 -9 2z"/>
<path d="M6950 2700 c-9 -6 -10 -10 -3 -10 6 0 15 5 18 10 8 12 4 12 -15 0z"/>
<path d="M5637 2694 c-12 -13 -8 -20 14 -21 11 -1 19 3 17 9 -5 15 -22 21 -31
12z"/>
<path d="M7300 2696 c0 -2 7 -7 16 -10 8 -3 12 -2 9 4 -6 10 -25 14 -25 6z"/>
<path d="M6868 2657 c-32 -17 -58 -35 -58 -39 0 -4 21 6 47 22 26 17 53 30 60
30 7 0 13 5 13 10 0 13 4 14 -62 -23z"/>
<path d="M8437 2669 c7 -7 15 -10 18 -7 3 3 -2 9 -12 12 -14 6 -15 5 -6 -5z"/>
<path d="M3322 2654 c3 -19 57 -78 64 -71 2 2 -7 16 -21 31 -14 15 -25 31 -25
36 0 5 -5 12 -11 15 -6 4 -9 0 -7 -11z"/>
<path d="M6240 2663 c0 -6 7 -16 15 -23 8 -7 13 -15 11 -19 -2 -3 9 -21 24
-39 20 -24 30 -30 36 -21 4 7 -2 20 -17 33 -13 12 -34 34 -46 50 -13 16 -23
24 -23 19z"/>
<path d="M7350 2656 c0 -16 -39 -32 -82 -35 -10 0 -18 -5 -18 -9 0 -15 69 -8
75 7 4 9 9 10 18 3 8 -6 25 -5 52 3 35 11 37 13 13 14 -16 1 -28 5 -28 10 0 5
-7 11 -15 15 -9 3 -15 0 -15 -8z"/>
<path d="M4388 2653 c6 -2 18 -2 25 0 6 3 1 5 -13 5 -14 0 -19 -2 -12 -5z"/>
<path d="M3920 2643 c0 -5 13 -21 28 -38 15 -16 36 -41 46 -55 l18 -25 -8 25
c-4 14 -15 32 -25 41 -11 9 -19 20 -19 25 0 5 -9 15 -20 22 -11 7 -20 9 -20 5z"/>
<path d="M5696 2644 c6 -3 9 -15 7 -27 -3 -16 8 -36 41 -72 44 -47 67 -52 26
-5 -11 13 -20 27 -20 32 0 4 -6 8 -14 8 -8 0 -18 4 -21 10 -4 6 1 7 12 4 16
-5 15 -3 -2 11 -16 12 -17 18 -7 24 11 7 10 10 -3 15 -19 7 -36 7 -19 0z"/>
<path d="M7680 2641 c0 -2 8 -10 18 -17 16 -13 15 -16 -13 -40 l-30 -26 43 23
c43 23 50 33 31 45 -8 4 -7 9 2 15 10 6 3 8 -18 7 -18 -1 -33 -4 -33 -7z"/>
<path d="M7798 2643 c6 -2 18 -2 25 0 6 3 1 5 -13 5 -14 0 -19 -2 -12 -5z"/>
<path d="M7453 2633 c9 -2 25 -2 35 0 9 3 1 5 -18 5 -19 0 -27 -2 -17 -5z"/>
<path d="M7563 2633 c15 -2 37 -2 50 0 12 2 0 4 -28 4 -27 0 -38 -2 -22 -4z"/>
<path d="M7938 2633 c12 -2 32 -2 45 0 12 2 2 4 -23 4 -25 0 -35 -2 -22 -4z"/>
<path d="M2715 2620 c-3 -5 -1 -10 4 -10 6 0 11 5 11 10 0 6 -2 10 -4 10 -3 0
-8 -4 -11 -10z"/>
<path d="M4530 2619 c0 -13 21 -33 38 -37 10 -2 10 2 0 18 -14 22 -38 34 -38
19z"/>
<path d="M8520 2580 c11 -21 20 -48 20 -59 0 -25 20 -71 32 -71 4 0 8 -12 8
-26 0 -15 12 -38 30 -56 17 -16 37 -43 46 -59 8 -16 18 -29 23 -29 4 0 16 -16
27 -35 10 -19 22 -35 25 -35 4 0 10 -11 13 -25 8 -30 26 -33 26 -4 0 11 -4 17
-10 14 -5 -3 -10 1 -10 11 0 15 -66 105 -112 155 -10 11 -18 26 -18 35 0 9 -5
12 -12 8 -7 -5 -9 -2 -6 7 3 9 -3 26 -13 40 -10 13 -19 31 -19 40 0 26 -49
129 -60 129 -6 0 -1 -18 10 -40z"/>
<path d="M2740 2600 c0 -5 5 -10 11 -10 5 0 7 5 4 10 -3 6 -8 10 -11 10 -2 0
-4 -4 -4 -10z"/>
<path d="M6807 2580 c-9 -11 -13 -20 -8 -20 11 0 35 29 29 35 -2 2 -12 -4 -21
-15z"/>
<path d="M8119 2552 c2 -30 6 -40 12 -31 13 21 11 66 -3 72 -10 3 -12 -8 -9
-41z"/>
<path d="M9037 2583 c3 -10 17 -32 29 -50 13 -17 24 -38 24 -45 1 -7 14 -29
30 -48 17 -19 30 -42 30 -52 0 -9 4 -19 9 -22 5 -3 12 -17 15 -31 4 -14 30
-60 59 -103 29 -43 63 -106 76 -140 12 -34 26 -60 32 -57 5 4 9 -2 9 -12 0
-10 9 -35 19 -54 l20 -36 -22 -11 c-12 -6 -39 -13 -59 -17 -24 -4 -38 -11 -38
-20 0 -17 40 -21 56 -6 10 10 35 14 71 12 15 -1 25 -11 34 -36 7 -19 16 -35
20 -35 4 0 7 -8 6 -18 0 -10 13 -47 31 -83 17 -35 45 -93 62 -129 18 -36 47
-94 65 -130 19 -35 41 -89 51 -120 9 -30 21 -62 25 -70 22 -40 72 -160 85
-202 8 -26 19 -50 24 -53 6 -3 10 -14 10 -23 0 -10 13 -44 30 -77 16 -33 30
-68 30 -77 0 -40 35 -147 67 -207 24 -46 33 -75 31 -100 -3 -34 -5 -36 -46
-42 -48 -6 -72 -23 -56 -39 7 -7 26 -5 58 4 26 8 54 12 62 9 8 -3 21 -31 30
-62 8 -31 21 -72 29 -91 7 -19 16 -55 20 -80 10 -60 53 -193 70 -217 30 -40
27 3 -7 105 -20 59 -39 125 -43 147 -10 62 -103 334 -134 395 -33 63 -61 155
-61 197 0 16 -7 39 -16 52 -16 22 -40 78 -74 176 -9 28 -35 86 -57 131 -22 44
-43 98 -47 120 -4 21 -23 71 -42 109 -48 98 -60 116 -69 107 -5 -4 -6 -2 -2 3
3 6 -7 38 -23 70 -16 33 -30 66 -30 73 0 7 -10 32 -22 55 -12 23 -22 44 -23
47 -2 18 -60 130 -67 130 -5 0 -7 4 -3 9 3 5 1 12 -4 15 -5 4 -22 31 -37 61
-15 30 -31 52 -36 49 -4 -3 -5 2 -2 10 8 21 -22 80 -88 171 -20 29 -52 86 -72
128 -20 42 -41 79 -46 82 -5 3 -26 37 -47 75 -35 65 -61 94 -46 53z"/>
<path d="M7490 2576 c-36 -7 -58 -14 -50 -17 13 -5 12 -8 -3 -23 -9 -10 -17
-18 -17 -20 0 -6 48 2 67 12 12 7 30 12 39 12 16 0 16 1 -2 15 -19 14 -19 14
1 15 11 0 27 5 35 10 18 11 15 11 -70 -4z m0 -26 c0 -5 -2 -10 -4 -10 -3 0 -8
5 -11 10 -3 6 -1 10 4 10 6 0 11 -4 11 -10z"/>
<path d="M2760 2570 c0 -5 5 -10 11 -10 5 0 7 5 4 10 -3 6 -8 10 -11 10 -2 0
-4 -4 -4 -10z"/>
<path d="M7390 2570 c-13 -8 -13 -10 2 -10 9 0 20 5 23 10 8 13 -5 13 -25 0z"/>
<path d="M1460 2561 c0 -5 12 -14 28 -19 15 -5 36 -14 47 -18 18 -7 18 -6 6 9
-7 9 -22 17 -32 17 -10 0 -21 5 -24 10 -8 12 -25 13 -25 1z"/>
<path d="M2128 2563 c7 -3 16 -2 19 1 4 3 -2 6 -13 5 -11 0 -14 -3 -6 -6z"/>
<path d="M3400 2566 c0 -3 16 -22 36 -43 l36 -38 -27 43 c-24 36 -45 54 -45
38z"/>
<path d="M4580 2564 c0 -7 27 -34 34 -34 4 0 1 9 -6 20 -12 19 -28 27 -28 14z"/>
<path d="M5178 2541 c9 -17 19 -25 23 -19 4 6 -1 19 -9 29 -25 29 -33 23 -14
-10z"/>
<path d="M7333 2553 c9 -2 23 -2 30 0 6 3 -1 5 -18 5 -16 0 -22 -2 -12 -5z"/>
<path d="M9596 2547 c3 -10 9 -15 12 -12 3 3 0 11 -7 18 -10 9 -11 8 -5 -6z"/>
<path d="M2180 2542 c0 -5 10 -17 22 -28 l21 -19 -18 28 c-18 28 -25 33 -25
19z"/>
<path d="M6350 2530 c0 -5 5 -10 11 -10 5 0 7 5 4 10 -3 6 -8 10 -11 10 -2 0
-4 -4 -4 -10z"/>
<path d="M7228 2533 c7 -3 16 -2 19 1 4 3 -2 6 -13 5 -11 0 -14 -3 -6 -6z"/>
<path d="M11666 2524 c-8 -20 -4 -25 11 -16 7 4 9 13 4 21 -6 10 -10 9 -15 -5z"/>
<path d="M7543 2514 c-18 -8 -33 -16 -33 -19 0 -7 60 16 66 26 6 11 7 11 -33
-7z"/>
<path d="M8094 2513 c-5 -12 -28 -42 -51 -67 -24 -24 -43 -49 -43 -54 0 -5 -7
-15 -15 -22 -21 -18 -19 -27 18 -64 33 -34 67 -56 88 -56 15 0 -9 30 -25 30
-12 1 -44 26 -63 51 -18 22 3 61 63 122 29 30 44 53 41 64 -3 16 -5 15 -13 -4z"/>
<path d="M2851 2507 c8 -7 19 -21 23 -32 6 -14 10 -16 13 -7 6 15 -24 52 -41
52 -6 0 -4 -6 5 -13z"/>
<path d="M7058 2503 c7 -3 16 -2 19 1 4 3 -2 6 -13 5 -11 0 -14 -3 -6 -6z"/>
<path d="M5220 2490 c0 -5 5 -10 11 -10 5 0 7 5 4 10 -3 6 -8 10 -11 10 -2 0
-4 -4 -4 -10z"/>
<path d="M6360 2490 c0 -5 5 -10 10 -10 6 0 10 5 10 10 0 6 -4 10 -10 10 -5 0
-10 -4 -10 -10z"/>
<path d="M5820 2460 c11 -16 26 -33 32 -36 7 -4 -1 9 -16 29 -34 44 -46 50
-16 7z"/>
<path d="M6968 2483 c7 -3 16 -2 19 1 4 3 -2 6 -13 5 -11 0 -14 -3 -6 -6z"/>
<path d="M9630 2482 c0 -5 7 -15 15 -22 8 -7 15 -8 15 -2 0 5 -7 15 -15 22 -8
7 -15 8 -15 2z"/>
<path d="M11578 2483 c7 -3 16 -2 19 1 4 3 -2 6 -13 5 -11 0 -14 -3 -6 -6z"/>
<path d="M4660 2471 c0 -6 4 -13 10 -16 6 -3 7 1 4 9 -7 18 -14 21 -14 7z"/>
<path d="M6387 2474 c-3 -3 6 -28 20 -56 14 -27 27 -48 29 -45 2 2 -6 27 -19
55 -13 29 -27 49 -30 46z"/>
<path d="M6580 2465 c0 -8 7 -15 15 -15 9 0 12 6 9 15 -4 8 -10 15 -15 15 -5
0 -9 -7 -9 -15z"/>
<path d="M3505 2450 c21 -24 26 -25 19 -6 -3 8 -13 17 -22 21 -13 5 -13 2 3
-15z"/>
<path d="M5250 2461 c0 -5 5 -13 10 -16 6 -3 10 -2 10 4 0 5 -4 13 -10 16 -5
3 -10 2 -10 -4z"/>
<path d="M950 2440 c8 -5 20 -10 25 -10 6 0 3 5 -5 10 -8 5 -19 10 -25 10 -5
0 -3 -5 5 -10z"/>
<path d="M9670 2425 c0 -10 6 -26 14 -34 19 -21 166 -311 166 -327 0 -18 -14
-25 -67 -32 -47 -7 -66 -25 -39 -35 9 -4 34 0 57 8 55 20 78 19 86 -2 3 -10
45 -99 93 -198 97 -198 190 -414 190 -439 0 -9 11 -33 24 -54 13 -21 35 -70
49 -109 15 -40 31 -80 36 -90 5 -10 22 -54 37 -98 15 -44 39 -107 54 -140 22
-47 70 -199 70 -219 0 -15 -36 -36 -61 -36 -38 0 -69 -16 -69 -35 0 -19 24
-19 82 -1 25 7 52 10 59 6 7 -5 21 -30 31 -57 22 -55 86 -260 98 -313 39 -173
57 -220 82 -220 22 0 22 -1 -1 53 -11 25 -31 94 -45 154 -13 59 -48 173 -76
253 -28 80 -63 181 -76 225 -64 202 -78 243 -100 287 -13 26 -24 53 -24 59 0
14 -40 119 -71 186 -10 24 -19 46 -19 50 0 5 -7 22 -16 38 -9 17 -36 82 -61
145 -24 63 -48 119 -52 125 -4 5 -18 37 -31 70 -13 33 -42 94 -66 135 -23 41
-45 86 -49 100 -4 14 -13 32 -21 41 -7 8 -34 60 -60 115 -25 54 -54 110 -64
124 -9 14 -21 36 -25 50 -4 14 -21 44 -36 67 -16 23 -29 44 -29 46 0 3 -16 31
-35 63 -20 33 -35 50 -35 39z"/>
<path d="M10716 2427 c3 -10 9 -15 12 -12 3 3 0 11 -7 18 -10 9 -11 8 -5 -6z"/>
<path d="M10212 2389 c12 -22 24 -35 26 -29 3 7 0 15 -5 19 -6 3 -13 16 -17
29 -4 12 -12 22 -17 22 -6 0 0 -18 13 -41z"/>
<path d="M5300 2401 c0 -5 5 -13 10 -16 6 -3 10 -2 10 4 0 5 -4 13 -10 16 -5
3 -10 2 -10 -4z"/>
<path d="M11250 2371 c0 -21 -23 -37 -64 -44 -22 -3 -44 -11 -50 -17 -16 -16
39 -12 81 5 20 9 43 13 51 10 10 -4 12 1 7 18 -9 27 -25 46 -25 28z"/>
<path d="M5880 2360 c0 -5 5 -10 11 -10 5 0 7 5 4 10 -3 6 -8 10 -11 10 -2 0
-4 -4 -4 -10z"/>
<path d="M407 2349 c7 -7 15 -10 18 -7 3 3 -2 9 -12 12 -14 6 -15 5 -6 -5z"/>
<path d="M6450 2354 c0 -4 11 -22 25 -40 14 -18 25 -39 25 -46 0 -7 9 -24 20
-38 27 -34 24 -14 -5 35 -13 22 -28 50 -34 62 -10 21 -31 40 -31 27z"/>
<path d="M10760 2355 c1 -6 7 -21 16 -35 l15 -25 -7 25 c-7 26 -24 52 -24 35z"/>
<path d="M7723 2343 c15 -2 39 -2 55 0 15 2 2 4 -28 4 -30 0 -43 -2 -27 -4z"/>
<path d="M7835 2340 c28 -12 37 -12 30 0 -3 6 -16 10 -28 9 -21 0 -21 -1 -2
-9z"/>
<path d="M7888 2327 c9 -10 7 -20 -5 -37 l-17 -24 32 23 c26 18 30 26 21 37
-6 8 -18 14 -26 14 -12 0 -13 -3 -5 -13z"/>
<path d="M10247 2323 c4 -10 25 -49 47 -87 46 -81 43 -95 -29 -111 -61 -13
-78 -42 -19 -31 22 4 56 10 76 13 l38 6 36 -79 c20 -44 49 -106 64 -139 15
-33 38 -87 51 -120 13 -33 33 -76 44 -95 22 -37 69 -148 80 -190 4 -14 15 -38
25 -55 23 -39 90 -210 90 -231 0 -24 79 -221 94 -233 8 -6 17 -30 20 -53 4
-23 13 -56 21 -73 8 -16 16 -48 18 -70 2 -42 2 -41 -85 -60 -19 -4 -28 -12
-28 -25 0 -24 31 -26 91 -9 45 14 63 4 73 -39 4 -15 18 -65 32 -112 31 -104
43 -146 94 -325 35 -124 47 -171 49 -197 2 -14 41 -8 41 6 0 20 -63 246 -93
336 -14 41 -30 99 -36 129 -6 29 -25 86 -41 125 -17 39 -30 76 -30 82 0 7 -7
25 -15 40 -8 16 -15 43 -15 59 0 17 -9 50 -20 74 -11 24 -20 48 -20 55 0 6
-16 44 -35 83 -19 40 -35 76 -35 80 -1 4 -9 26 -20 48 -11 22 -19 50 -20 61 0
28 -37 126 -101 266 -28 62 -57 129 -64 149 -7 20 -36 82 -64 138 -28 56 -51
108 -51 116 0 7 -4 15 -8 17 -4 2 -48 84 -97 182 -49 99 -99 194 -111 212 -12
17 -25 41 -29 53 -3 12 -10 21 -15 21 -5 0 -6 -8 -3 -17z"/>
<path d="M7560 2319 c0 -5 5 -7 10 -4 6 3 10 8 10 11 0 2 -4 4 -10 4 -5 0 -10
-5 -10 -11z"/>
<path d="M480 2311 c0 -5 7 -12 16 -15 14 -5 15 -4 4 9 -14 17 -20 19 -20 6z"/>
<path d="M11300 2286 c0 -8 4 -17 9 -20 5 -4 7 3 4 14 -6 23 -13 26 -13 6z"/>
<path d="M7058 2272 c-5 -17 46 -75 57 -64 3 3 -4 11 -15 19 -11 8 -20 23 -20
33 0 25 -17 34 -22 12z"/>
<path d="M10795 2271 c7 -24 -10 -37 -68 -51 -53 -14 -66 -36 -14 -26 17 4 50
9 73 12 l40 6 38 -78 c21 -44 48 -99 58 -124 19 -43 37 -83 95 -210 14 -30 29
-64 33 -75 4 -11 15 -36 24 -57 9 -20 16 -42 16 -50 0 -7 12 -31 25 -53 14
-22 25 -45 25 -51 0 -6 10 -33 22 -60 12 -27 28 -67 34 -89 17 -60 33 -100 80
-210 23 -55 56 -143 72 -195 32 -103 30 -130 -12 -130 -41 0 -86 -21 -86 -40
0 -27 23 -31 85 -13 61 17 74 12 75 -30 0 -10 9 -35 20 -57 11 -22 20 -52 20
-67 0 -16 7 -38 15 -50 8 -12 20 -43 25 -70 6 -26 22 -88 36 -138 25 -91 44
-162 63 -245 23 -96 34 -120 54 -120 22 0 21 11 -8 115 -9 33 -25 94 -35 135
-29 116 -47 181 -64 225 -8 22 -15 50 -16 62 0 12 -4 25 -10 28 -5 3 -10 16
-10 28 -1 12 -7 38 -15 57 -42 108 -67 182 -80 235 -23 98 -90 280 -123 332
-8 13 -18 37 -22 55 -14 52 -48 146 -64 176 -8 15 -33 72 -55 127 -74 186 -93
228 -112 249 -11 11 -18 25 -15 31 2 5 -9 35 -25 65 -16 30 -35 71 -44 90 -8
19 -35 71 -59 115 -25 44 -54 99 -65 123 -20 42 -37 58 -26 23z"/>
<path d="M6710 2250 c-12 -8 -10 -10 8 -10 13 0 20 4 17 10 -7 12 -6 12 -25 0z"/>
<path d="M7835 2250 c-3 -5 -2 -10 4 -10 5 0 13 5 16 10 3 6 2 10 -4 10 -5 0
-13 -4 -16 -10z"/>
<path d="M8110 2250 c0 -5 5 -10 11 -10 5 0 7 5 4 10 -3 6 -8 10 -11 10 -2 0
-4 -4 -4 -10z"/>
<path d="M11320 2242 c0 -14 70 -151 80 -157 6 -3 10 -16 10 -28 0 -12 10 -38
23 -57 13 -19 38 -71 56 -115 18 -44 44 -105 57 -136 13 -31 24 -64 24 -72 0
-9 4 -18 9 -22 5 -3 15 -22 22 -43 7 -20 27 -70 46 -110 18 -39 33 -79 33 -86
0 -8 5 -18 10 -21 6 -3 10 -16 10 -27 0 -12 13 -49 30 -84 16 -34 32 -75 35
-91 4 -15 22 -72 42 -126 38 -108 36 -127 -18 -127 -49 0 -81 -17 -77 -43 2
-18 9 -22 34 -20 17 2 44 9 60 18 35 18 54 19 54 3 0 -14 46 -168 61 -203 9
-24 55 -167 66 -210 7 -26 8 -21 11 30 3 49 -5 84 -38 190 -23 72 -46 139 -50
150 -14 33 -57 168 -64 202 -4 17 -16 48 -27 69 -10 21 -19 47 -19 59 0 11
-14 47 -30 80 -16 33 -30 64 -30 69 0 13 -63 169 -103 257 -19 42 -40 93 -47
115 -7 21 -19 48 -26 59 -8 11 -14 26 -14 34 0 12 -105 229 -145 301 -15 26
-33 63 -59 118 -14 30 -26 41 -26 24z"/>
<path d="M8160 2232 c0 -5 21 -19 48 -32 88 -43 91 -48 85 -121 -10 -110 -8
-121 21 -143 72 -56 108 -96 103 -116 -3 -11 -1 -20 4 -20 5 0 9 13 9 29 0 23
-13 39 -66 82 l-65 54 5 62 c3 35 10 72 16 83 8 14 8 20 0 20 -6 0 -9 4 -6 9
3 5 0 13 -7 19 -26 21 -147 82 -147 74z"/>
<path d="M11840 2225 c0 -8 4 -15 10 -15 5 0 7 7 4 15 -4 8 -8 15 -10 15 -2 0
-4 -7 -4 -15z"/>
<path d="M11860 2194 c0 -20 25 -84 32 -84 9 0 5 18 -13 68 -8 21 -19 30 -19
16z"/>
<path d="M8775 2161 c-8 -14 4 -53 15 -46 4 3 7 -1 7 -8 -3 -26 15 -97 24 -97
6 0 8 -4 5 -9 -3 -5 4 -24 17 -42 78 -117 79 -132 2 -143 -43 -7 -64 -19 -47
-30 4 -2 29 2 55 11 26 8 53 13 61 10 19 -8 66 -81 66 -103 0 -19 43 -98 70
-129 10 -11 23 -40 29 -65 25 -99 47 -153 83 -198 21 -26 41 -52 46 -57 4 -6
13 -18 21 -27 7 -10 16 -50 21 -90 l7 -73 2 71 1 71 -64 92 c-49 71 -69 111
-87 174 -12 45 -35 100 -49 122 -28 42 -68 116 -67 125 1 12 -68 150 -75 150
-4 0 -8 6 -8 13 0 13 -30 74 -58 117 -9 14 -17 30 -19 35 -1 6 -7 30 -13 54
-13 52 -35 87 -45 72z"/>
<path d="M7237 2113 c-11 -10 -8 -55 3 -48 6 3 10 15 10 25 0 10 8 21 18 23
14 4 13 5 -4 6 -11 0 -24 -2 -27 -6z"/>
<path d="M11915 2069 c7 -44 83 -202 84 -174 1 11 -12 47 -28 80 -16 33 -36
76 -45 95 l-16 35 5 -36z"/>
<path d="M7631 2073 c-1 -28 8 -53 21 -53 7 0 7 4 0 13 -5 6 -12 23 -15 37 -4
22 -4 22 -6 3z"/>
<path d="M7430 2071 c0 -5 5 -13 10 -16 6 -3 10 -2 10 4 0 5 -4 13 -10 16 -5
3 -10 2 -10 -4z"/>
<path d="M8383 1675 c0 -33 -3 -36 -52 -42 -23 -3 -44 -10 -47 -15 -7 -11 30
-5 98 14 37 11 37 11 22 39 -18 36 -21 36 -21 4z"/>
<path d="M7890 1680 c0 -5 5 -10 11 -10 5 0 7 5 4 10 -3 6 -8 10 -11 10 -2 0
-4 -4 -4 -10z"/>
<path d="M7410 1618 c0 -9 5 -20 10 -23 13 -8 13 5 0 25 -8 13 -10 13 -10 -2z"/>
<path d="M8591 1585 c1 -19 18 -51 18 -35 0 8 -4 22 -9 30 -5 8 -9 11 -9 5z"/>
<path d="M7466 1482 c-3 -6 -1 -14 5 -17 15 -10 25 3 12 16 -7 7 -13 7 -17 1z"/>
<path d="M7908 1403 c-21 -5 -23 -19 -4 -30 7 -4 15 -13 17 -19 2 -6 11 4 20
22 18 37 14 40 -33 27z"/>
<path d="M8696 1267 c3 -10 9 -15 12 -12 3 3 0 11 -7 18 -10 9 -11 8 -5 -6z"/>
<path d="M7716 1214 c-5 -17 -3 -30 5 -34 13 -9 72 13 77 28 3 9 -5 13 -59 28
-12 3 -19 -4 -23 -22z"/>
<path d="M9250 1019 c0 -20 26 -55 70 -95 49 -45 57 -63 79 -190 12 -69 29
-131 46 -164 70 -139 66 -174 -21 -185 -37 -4 -54 -11 -54 -21 0 -18 15 -18
72 3 42 15 49 15 70 1 25 -16 52 -102 68 -217 8 -57 52 -151 71 -151 16 0 10
22 -20 69 -21 33 -31 65 -36 111 -4 36 -22 103 -40 150 -19 47 -37 101 -40
120 -4 19 -26 73 -50 120 -37 74 -44 98 -50 175 -8 95 -19 126 -57 162 -39 37
-74 77 -92 103 -10 15 -16 19 -16 9z"/>
<path d="M8896 947 c3 -10 9 -15 12 -12 3 3 0 11 -7 18 -10 9 -11 8 -5 -6z"/>
<path d="M7865 580 c3 -5 8 -10 11 -10 2 0 4 5 4 10 0 6 -5 10 -11 10 -5 0 -7
-4 -4 -10z"/>
<path d="M9020 215 c-7 -8 -24 -16 -39 -16 -21 -1 -20 -3 9 -8 20 -4 41 -11
48 -15 8 -5 12 1 12 18 0 31 -14 41 -30 21z"/>
<path d="M8920 180 c0 -5 4 -10 9 -10 6 0 13 5 16 10 3 6 -1 10 -9 10 -9 0
-16 -4 -16 -10z"/>
<path d="M9070 125 c0 -8 5 -15 10 -15 6 0 10 -7 10 -15 0 -8 5 -15 10 -15 6
0 4 13 -5 30 -17 33 -25 38 -25 15z"/>
<path d="M8818 3 c7 -3 16 -2 19 1 4 3 -2 6 -13 5 -11 0 -14 -3 -6 -6z"/>
</g>
</svg>
